<svg width="27" height="31" viewBox="0 0 27 31" fill="none" xmlns="http://www.w3.org/2000/svg">
<path d="M6.10876 25.9587C7.21739 27.0673 10.4509 23.649 11.9291 21.8013C11.9291 24.111 11.4302 28.8411 9.43466 29.2846C6.94024 29.8389 4.72297 24.5729 6.10876 25.9587Z" fill="white"/>
<path d="M22.4611 25.6815C23.5697 24.1294 19.0428 23.0023 16.6408 22.6328C18.9504 21.5241 23.8469 19.6949 24.9555 21.247C26.3413 23.1871 21.0753 27.6216 22.4611 25.6815Z" fill="white"/>
<path d="M6.10876 25.9587C7.21739 27.0673 10.4509 23.649 11.9291 21.8013C11.9291 24.111 11.4302 28.8411 9.43466 29.2846C6.94024 29.8389 4.72297 24.5729 6.10876 25.9587Z" stroke="#18C5C7" stroke-width="1.38579"/>
<path d="M22.4611 25.6815C23.5697 24.1294 19.0428 23.0023 16.6408 22.6328C18.9504 21.5241 23.8469 19.6949 24.9555 21.247C26.3413 23.1871 21.0753 27.6216 22.4611 25.6815Z" stroke="#18C5C7" stroke-width="1.38579"/>
<path d="M22.4586 3.87982C23.3838 3.87991 24.2896 4.17829 24.9595 4.73138C25.6382 5.29168 26.0762 6.12315 25.9888 7.11615L25.9898 7.11713C25.8602 8.93472 24.3606 10.2546 22.4586 10.2548H14.1148C13.3202 10.2545 12.7799 9.54817 12.8355 8.84076L12.8619 8.40131C12.9054 7.33198 12.84 5.98929 12.7916 5.21478C12.7469 4.49797 13.3143 3.87998 14.0426 3.87982H22.4586Z" fill="#18C5C7" stroke="#18C5C7" stroke-width="1.38579"/>
<path d="M19.1524 19.2242C18.3406 16.1721 12.5429 15.1289 9.74554 14.9889C10.091 17.1168 10.9747 21.8585 11.7456 23.8021C12.7092 26.2315 20.167 23.0392 19.1524 19.2242Z" fill="#18C5C7" stroke="#18C5C7" stroke-width="1.38579"/>
<path d="M0.692902 7.24822C0.692902 1.74746 7.49888 0.590557 10.9019 0.699699L21.7569 0.970029C25.8365 2.17323 23.5827 5.52523 21.2026 6.79034H18.5196C19.0575 9.92541 18.299 13.2279 18.0481 13.4693C17.7078 13.7967 16.687 15.7613 10.2213 16.7435C3.75559 17.7258 0.692902 14.1242 0.692902 7.24822Z" fill="white" stroke="#18C5C7" stroke-width="1.38579"/>
<path d="M2.63327 9.63677C2.86014 8.87278 3.65417 7.34479 5.01536 7.34479C6.37656 7.34479 7.39746 9.09106 7.73775 9.96419" stroke="#18C5C7" stroke-width="1.38579" stroke-linecap="round"/>
<path d="M6.37616 8.32687C6.03586 9.30915 5.62751 11.5356 6.71646 12.5834C8.07766 13.8931 7.73734 8.32687 6.37616 8.32687Z" fill="#18C5C7" stroke="#18C5C7" stroke-width="1.38579"/>
<path d="M15.3827 6.23609H21.1788C22.7178 6.23609 23.8658 5.04892 23.9654 3.46448C24.101 1.82036 22.7178 0.692932 21.1788 0.692932H9.83952" stroke="#18C5C7" stroke-width="1.38579" stroke-linecap="round"/>
</svg>
